<svg id="Layer_1" data-name="Layer 1" xmlns="http://www.w3.org/2000/svg" viewBox="0 0 189.92 104.8"><defs><style>.cls-1{fill:#06afaf;}</style></defs><path class="cls-1" d="M60.85,26.05h-31a.4.4,0,0,0-.4.4v9.77a.39.39,0,0,0,.4.39H49.21a19.34,19.34,0,1,1-3.42-18,.39.39,0,0,0,.31.15H58.51a.4.4,0,0,0,.4-.4.41.41,0,0,0-.08-.24,30.76,30.76,0,1,0,2.74,12.66,34.21,34.21,0,0,0-.32-4.39.4.4,0,0,0-.4-.34"/><path class="cls-1" d="M106,21.5,96.56,37.68,87.72,21.5ZM129.79,1.67H117.87a.39.39,0,0,0-.35.2l-5.47,9.34H82.1L77,1.88a.42.42,0,0,0-.36-.22H64.27a.39.39,0,0,0-.35.2.38.38,0,0,0,0,.4L95.53,61.15a.41.41,0,0,0,.36.21h0a.42.42,0,0,0,.35-.2L130.14,2.28a.38.38,0,0,0,0-.41.42.42,0,0,0-.35-.2"/><path class="cls-1" d="M150.18,12.11h16.75c5.79,0,9.11,2.76,9.11,7.56,0,5.26-2.59,7.4-8.93,7.4H150.18Zm39.71,47.27L179.42,34.82c5.42-3,8.44-8.18,8.44-15.15,0-11.29-7.82-18-20.93-18H138.76a.42.42,0,0,0-.41.41V59.54a.41.41,0,0,0,.41.41h11.09a.41.41,0,0,0,.41-.41V37.59H168l9.25,22.12a.41.41,0,0,0,.38.25h11.91a.38.38,0,0,0,.34-.18.42.42,0,0,0,0-.39"/><path class="cls-1" d="M11.22,84.74a3.92,3.92,0,0,1-1.73,1.14A7.31,7.31,0,0,1,7,86.29a4.9,4.9,0,0,1-2.51-.63,4.13,4.13,0,0,1-1.67-1.81,6.45,6.45,0,0,1-.6-2.8V80.3a6.67,6.67,0,0,1,.56-2.86,4.09,4.09,0,0,1,1.6-1.85A4.6,4.6,0,0,1,6.84,75a4.58,4.58,0,0,1,3.07.94,4,4,0,0,1,1.31,2.72H9a2.21,2.21,0,0,0-.67-1.39,2.16,2.16,0,0,0-1.43-.44,2,2,0,0,0-1.77.88,4.64,4.64,0,0,0-.61,2.59V81a4.4,4.4,0,0,0,.66,2.63,2.25,2.25,0,0,0,1.93.88A2.53,2.53,0,0,0,9,83.92V82H6.88V80.34h4.34Z"/><rect class="cls-1" x="13.04" y="74.49" width="2.2" height="11.64"/><path class="cls-1" d="M18.89,82.12a3,3,0,0,0,.44,1.78,1.42,1.42,0,0,0,1.25.62,1.45,1.45,0,0,0,1.25-.61,3.34,3.34,0,0,0,.45-2,3,3,0,0,0-.45-1.78,1.46,1.46,0,0,0-1.26-.63,1.41,1.41,0,0,0-1.24.63,3.33,3.33,0,0,0-.44,1.94M16.7,82a4.74,4.74,0,0,1,.47-2.17,3.4,3.4,0,0,1,1.35-1.48,3.94,3.94,0,0,1,2.05-.53,3.72,3.72,0,0,1,2.71,1,4.08,4.08,0,0,1,1.17,2.76l0,.56a4.3,4.3,0,0,1-1.06,3,3.65,3.65,0,0,1-2.83,1.14,3.68,3.68,0,0,1-2.83-1.14,4.38,4.38,0,0,1-1.05-3.09Z"/><path class="cls-1" d="M31,82a3.26,3.26,0,0,0-.39-1.81,1.32,1.32,0,0,0-1.17-.57,1.44,1.44,0,0,0-1.44.85v3.24a1.46,1.46,0,0,0,1.45.86,1.36,1.36,0,0,0,1.4-1A5.76,5.76,0,0,0,31,82m2.2.16a5,5,0,0,1-.85,3.08A2.79,2.79,0,0,1,30,86.29a2.58,2.58,0,0,1-2.13-1l-.09.87h-2V74.49H28v4.18a2.49,2.49,0,0,1,2-.89,2.8,2.8,0,0,1,2.35,1.11,5,5,0,0,1,.86,3.1Z"/><path class="cls-1" d="M37.5,84.61a1.91,1.91,0,0,0,.89-.21,1.49,1.49,0,0,0,.61-.58V82.41h-.82c-1.1,0-1.68.38-1.75,1.14v.12a.89.89,0,0,0,.29.68,1.09,1.09,0,0,0,.79.26m1.81,1.53a2.31,2.31,0,0,1-.22-.74,2.66,2.66,0,0,1-2.07.89,2.89,2.89,0,0,1-2-.7,2.23,2.23,0,0,1-.79-1.76,2.31,2.31,0,0,1,1-2,4.74,4.74,0,0,1,2.79-.7h1v-.47a1.31,1.31,0,0,0-.3-.91,1.13,1.13,0,0,0-.92-.34,1.32,1.32,0,0,0-.86.26.91.91,0,0,0-.32.73H34.41a2.2,2.2,0,0,1,.44-1.32,2.94,2.94,0,0,1,1.24-1,4.56,4.56,0,0,1,1.81-.35,3.55,3.55,0,0,1,2.4.77,2.63,2.63,0,0,1,.89,2.14v3.55A4,4,0,0,0,41.52,86v.13Z"/><rect class="cls-1" x="42.99" y="74.49" width="2.2" height="11.64"/><path class="cls-1" d="M53.86,82h2.76l-1.39-4.13Zm3.37,1.84h-4l-.76,2.28H50.07l4.11-11h2.11l4.13,11H58Z"/><path class="cls-1" d="M65.75,83.87a.71.71,0,0,0-.4-.63,4.35,4.35,0,0,0-1.28-.41c-1.95-.41-2.92-1.24-2.92-2.49a2.24,2.24,0,0,1,.9-1.82,3.63,3.63,0,0,1,2.37-.74,4,4,0,0,1,2.5.74,2.33,2.33,0,0,1,.93,1.91H65.66a1.09,1.09,0,0,0-.3-.78,1.3,1.3,0,0,0-1-.3,1.27,1.27,0,0,0-.85.25.75.75,0,0,0-.31.63.69.69,0,0,0,.35.59,3.57,3.57,0,0,0,1.16.39,10.39,10.39,0,0,1,1.38.36,2.27,2.27,0,0,1,1.74,2.21,2.14,2.14,0,0,1-1,1.82,4.16,4.16,0,0,1-2.48.69,4.24,4.24,0,0,1-1.83-.37,3,3,0,0,1-1.26-1,2.32,2.32,0,0,1-.45-1.38H63a1.15,1.15,0,0,0,.44.89,1.66,1.66,0,0,0,1.07.31,1.57,1.57,0,0,0,1-.23.74.74,0,0,0,.33-.63"/><path class="cls-1" d="M73.73,83.87a.69.69,0,0,0-.4-.63,4.24,4.24,0,0,0-1.28-.41c-2-.41-2.92-1.24-2.92-2.49a2.24,2.24,0,0,1,.9-1.82,3.67,3.67,0,0,1,2.37-.74,3.94,3.94,0,0,1,2.5.74,2.34,2.34,0,0,1,.94,1.91H73.65a1.1,1.1,0,0,0-.31-.78,1.3,1.3,0,0,0-1-.3,1.29,1.29,0,0,0-.85.25.78.78,0,0,0-.31.63.69.69,0,0,0,.35.59,3.57,3.57,0,0,0,1.16.39,10.39,10.39,0,0,1,1.38.36,2.27,2.27,0,0,1,1.74,2.21,2.16,2.16,0,0,1-1,1.82,4.19,4.19,0,0,1-2.49.69,4.24,4.24,0,0,1-1.83-.37,3.09,3.09,0,0,1-1.26-1,2.32,2.32,0,0,1-.45-1.38H71a1.11,1.11,0,0,0,.43.89,1.7,1.7,0,0,0,1.07.31,1.62,1.62,0,0,0,1-.23.76.76,0,0,0,.32-.63"/><path class="cls-1" d="M80.79,79.55a1.37,1.37,0,0,0-1.05.44,2.28,2.28,0,0,0-.52,1.27h3v-.18A1.64,1.64,0,0,0,81.87,80a1.4,1.4,0,0,0-1.08-.4M81,86.29a4,4,0,0,1-2.93-1.11,3.91,3.91,0,0,1-1.14-3V82a5,5,0,0,1,.48-2.21,3.52,3.52,0,0,1,1.35-1.5,3.83,3.83,0,0,1,2-.53,3.4,3.4,0,0,1,2.65,1.07,4.32,4.32,0,0,1,1,3v.89H79.19A2.07,2.07,0,0,0,79.83,84a2,2,0,0,0,1.36.48,2.38,2.38,0,0,0,2-.91l1.07,1.2a3.25,3.25,0,0,1-1.33,1.09,4.38,4.38,0,0,1-1.87.39"/><path class="cls-1" d="M90.1,83.87a.69.69,0,0,0-.4-.63,4.26,4.26,0,0,0-1.27-.41c-2-.41-2.93-1.24-2.93-2.49a2.22,2.22,0,0,1,.91-1.82,3.62,3.62,0,0,1,2.36-.74,3.92,3.92,0,0,1,2.5.74,2.31,2.31,0,0,1,.94,1.91H90a1.06,1.06,0,0,0-.31-.78,1.28,1.28,0,0,0-.94-.3,1.3,1.3,0,0,0-.86.25.77.77,0,0,0-.3.63.68.68,0,0,0,.34.59,3.56,3.56,0,0,0,1.17.39,11.29,11.29,0,0,1,1.38.36,2.27,2.27,0,0,1,1.73,2.21,2.16,2.16,0,0,1-1,1.82,4.17,4.17,0,0,1-2.49.69A4.27,4.27,0,0,1,87,85.92a3,3,0,0,1-1.25-1,2.27,2.27,0,0,1-.46-1.38h2.08a1.11,1.11,0,0,0,.43.89,1.71,1.71,0,0,0,1.08.31,1.59,1.59,0,0,0,1-.23.76.76,0,0,0,.32-.63"/><path class="cls-1" d="M98.08,83.87a.7.7,0,0,0-.39-.63,4.45,4.45,0,0,0-1.28-.41c-2-.41-2.93-1.24-2.93-2.49a2.22,2.22,0,0,1,.91-1.82,3.63,3.63,0,0,1,2.37-.74,3.91,3.91,0,0,1,2.49.74,2.31,2.31,0,0,1,.94,1.91H98a1.09,1.09,0,0,0-.3-.78,1.63,1.63,0,0,0-1.81-.05.77.77,0,0,0-.3.63.68.68,0,0,0,.34.59,3.56,3.56,0,0,0,1.17.39,11.29,11.29,0,0,1,1.38.36,2.26,2.26,0,0,1,1.73,2.21,2.16,2.16,0,0,1-1,1.82,4.17,4.17,0,0,1-2.49.69,4.31,4.31,0,0,1-1.83-.37,3,3,0,0,1-1.25-1,2.33,2.33,0,0,1-.46-1.38H95.3a1.14,1.14,0,0,0,.43.89,1.71,1.71,0,0,0,1.08.31,1.57,1.57,0,0,0,1-.23.73.73,0,0,0,.32-.63"/><path class="cls-1" d="M103.68,77.94l.07.91a2.88,2.88,0,0,1,2.35-1.07A2.2,2.2,0,0,1,108.28,79a2.82,2.82,0,0,1,2.46-1.25,2.46,2.46,0,0,1,2,.78,3.61,3.61,0,0,1,.65,2.34v5.24h-2.2V80.91a1.56,1.56,0,0,0-.27-1,1.18,1.18,0,0,0-1-.32,1.37,1.37,0,0,0-1.37.94v5.63H106.4V80.91a1.55,1.55,0,0,0-.28-1,1.24,1.24,0,0,0-1-.31,1.41,1.41,0,0,0-1.35.77v5.8h-2.19v-8.2Z"/><path class="cls-1" d="M118.59,79.55a1.38,1.38,0,0,0-1.06.44,2.35,2.35,0,0,0-.52,1.27h3v-.18a1.6,1.6,0,0,0-.4-1.13,1.39,1.39,0,0,0-1.07-.4m.25,6.74a4,4,0,0,1-2.94-1.11,3.9,3.9,0,0,1-1.13-3V82a5.08,5.08,0,0,1,.47-2.21,3.48,3.48,0,0,1,1.36-1.5,3.8,3.8,0,0,1,2-.53,3.38,3.38,0,0,1,2.65,1.07,4.27,4.27,0,0,1,1,3v.89H117a2,2,0,0,0,.64,1.29,1.94,1.94,0,0,0,1.35.48,2.36,2.36,0,0,0,2-.91l1.08,1.2a3.29,3.29,0,0,1-1.34,1.09,4.36,4.36,0,0,1-1.86.39"/><path class="cls-1" d="M125.47,77.94l.07.94a2.86,2.86,0,0,1,2.36-1.1,2.4,2.4,0,0,1,1.94.77,3.59,3.59,0,0,1,.65,2.29v5.3H128.3V80.89a1.39,1.39,0,0,0-.31-1,1.33,1.33,0,0,0-1-.31,1.51,1.51,0,0,0-1.39.78v5.79h-2.19v-8.2Z"/><path class="cls-1" d="M134.77,75.92v2h1.4v1.6h-1.4v4.1a1,1,0,0,0,.17.65.89.89,0,0,0,.67.19,3.24,3.24,0,0,0,.65,0v1.66a4.61,4.61,0,0,1-1.33.2A2.09,2.09,0,0,1,132.58,84V79.54h-1.2v-1.6h1.2v-2Z"/><path class="cls-1" d="M143.68,80.26h1.83a1.9,1.9,0,0,0,1.33-.44,1.57,1.57,0,0,0,.47-1.2,1.66,1.66,0,0,0-.45-1.23,1.81,1.81,0,0,0-1.36-.45h-1.82Zm1.81,1.84h-1.81v4H141.4v-11h4.1a4.64,4.64,0,0,1,3,.87,3,3,0,0,1,1.06,2.47,3.08,3.08,0,0,1-2,3.08L150,86v.11h-2.44Z"/><path class="cls-1" d="M154.69,79.55a1.39,1.39,0,0,0-1.06.44,2.35,2.35,0,0,0-.52,1.27h3v-.18a1.64,1.64,0,0,0-.39-1.13,1.41,1.41,0,0,0-1.08-.4m.25,6.74A4,4,0,0,1,152,85.18a3.94,3.94,0,0,1-1.13-3V82a5,5,0,0,1,.48-2.21,3.52,3.52,0,0,1,1.35-1.5,3.81,3.81,0,0,1,2-.53,3.41,3.41,0,0,1,2.65,1.07,4.32,4.32,0,0,1,1,3v.89h-5.22a2.07,2.07,0,0,0,.64,1.29,2,2,0,0,0,1.35.48,2.35,2.35,0,0,0,2-.91l1.08,1.2a3.25,3.25,0,0,1-1.33,1.09,4.44,4.44,0,0,1-1.87.39"/><path class="cls-1" d="M164.75,82a3.2,3.2,0,0,0-.41-1.76,1.3,1.3,0,0,0-1.17-.62,1.44,1.44,0,0,0-1.42.78v3.36a1.45,1.45,0,0,0,1.43.81c1,0,1.57-.85,1.57-2.57m2.19.16a4.94,4.94,0,0,1-.86,3,2.76,2.76,0,0,1-2.32,1.14,2.57,2.57,0,0,1-2-.86v3.86h-2.19V77.94h2l.07.8a2.59,2.59,0,0,1,2.08-1,2.78,2.78,0,0,1,2.36,1.13,5,5,0,0,1,.84,3.09Z"/><path class="cls-1" d="M170.15,82.12a3,3,0,0,0,.44,1.78,1.42,1.42,0,0,0,1.25.62,1.45,1.45,0,0,0,1.25-.61,3.34,3.34,0,0,0,.45-2,3,3,0,0,0-.45-1.78,1.46,1.46,0,0,0-1.26-.63,1.41,1.41,0,0,0-1.24.63,3.33,3.33,0,0,0-.44,1.94M168,82a4.74,4.74,0,0,1,.47-2.17,3.4,3.4,0,0,1,1.35-1.48,3.94,3.94,0,0,1,2.05-.53,3.72,3.72,0,0,1,2.71,1,4.08,4.08,0,0,1,1.17,2.76l0,.56a4.3,4.3,0,0,1-1.06,3,4.08,4.08,0,0,1-5.66,0,4.38,4.38,0,0,1-1-3.09Z"/><path class="cls-1" d="M181.68,80a5.89,5.89,0,0,0-.78-.06,1.6,1.6,0,0,0-1.63.84v5.37h-2.2v-8.2h2.07l.06,1A2,2,0,0,1,181,77.78a2.48,2.48,0,0,1,.68.1Z"/><path class="cls-1" d="M185.36,75.92v2h1.4v1.6h-1.4v4.1a1,1,0,0,0,.17.65.89.89,0,0,0,.67.19,3.24,3.24,0,0,0,.65,0v1.66a4.61,4.61,0,0,1-1.33.2A2.09,2.09,0,0,1,183.17,84V79.54H182v-1.6h1.2v-2Z"/><path class="cls-1" d="M4.2,100.63a3,3,0,0,0,.44,1.78,1.42,1.42,0,0,0,1.25.62,1.45,1.45,0,0,0,1.25-.61,3.34,3.34,0,0,0,.45-2,3,3,0,0,0-.45-1.78,1.46,1.46,0,0,0-1.26-.63,1.41,1.41,0,0,0-1.24.63,3.33,3.33,0,0,0-.44,1.94M2,100.47a4.74,4.74,0,0,1,.47-2.17,3.4,3.4,0,0,1,1.35-1.48,3.94,3.94,0,0,1,2.05-.53,3.72,3.72,0,0,1,2.71,1,4.08,4.08,0,0,1,1.17,2.76l0,.56a4.3,4.3,0,0,1-1.06,3,3.65,3.65,0,0,1-2.83,1.14,3.68,3.68,0,0,1-2.83-1.14A4.38,4.38,0,0,1,2,100.57Z"/><path class="cls-1" d="M13.14,96.45l.07.94a2.88,2.88,0,0,1,2.36-1.1,2.39,2.39,0,0,1,1.94.77,3.59,3.59,0,0,1,.65,2.29v5.3H16V99.4a1.43,1.43,0,0,0-.3-1,1.37,1.37,0,0,0-1-.31,1.51,1.51,0,0,0-1.39.78v5.79H11.08v-8.2Z"/><path class="cls-1" d="M26.1,95.45v7.37h1.1a2.47,2.47,0,0,0,2-.87,3.94,3.94,0,0,0,.72-2.5v-.58a4,4,0,0,0-.7-2.55,2.44,2.44,0,0,0-2-.87Zm-2.27,9.2v-11h3.4a5.13,5.13,0,0,1,2.6.66,4.52,4.52,0,0,1,1.79,1.86,5.76,5.76,0,0,1,.65,2.75v.51a5.79,5.79,0,0,1-.64,2.73A4.5,4.5,0,0,1,29.85,104a5.27,5.27,0,0,1-2.6.67Z"/><path class="cls-1" d="M36.09,104.65h-2.2V96.44h2.2ZM33.76,94.32a1.07,1.07,0,0,1,.33-.81,1.41,1.41,0,0,1,1.79,0,1.17,1.17,0,0,1,0,1.63,1.26,1.26,0,0,1-.89.32,1.24,1.24,0,0,1-.89-.32,1.05,1.05,0,0,1-.34-.82"/><path class="cls-1" d="M42.33,102.38a.69.69,0,0,0-.4-.63,4.52,4.52,0,0,0-1.27-.42c-1.95-.4-2.93-1.23-2.93-2.48A2.25,2.25,0,0,1,38.64,97,3.68,3.68,0,0,1,41,96.29,3.91,3.91,0,0,1,43.5,97a2.31,2.31,0,0,1,.94,1.91H42.25a1.09,1.09,0,0,0-.3-.78,1.32,1.32,0,0,0-1-.3,1.3,1.3,0,0,0-.86.25.77.77,0,0,0-.3.63.68.68,0,0,0,.34.59,3.56,3.56,0,0,0,1.17.39,9.72,9.72,0,0,1,1.38.36,2.27,2.27,0,0,1,1.73,2.21,2.13,2.13,0,0,1-1,1.81,4.1,4.1,0,0,1-2.49.7,4.31,4.31,0,0,1-1.83-.37,3,3,0,0,1-1.25-1,2.29,2.29,0,0,1-.46-1.38h2.08a1.11,1.11,0,0,0,.43.89,1.71,1.71,0,0,0,1.08.31A1.64,1.64,0,0,0,42,103a.73.73,0,0,0,.32-.63"/><path class="cls-1" d="M48.81,103.12a2,2,0,0,0,.9-.21,1.46,1.46,0,0,0,.6-.58v-1.41h-.82c-1.09,0-1.68.38-1.75,1.13v.13a.88.88,0,0,0,.28.68,1.17,1.17,0,0,0,.79.26m1.81,1.53a2.7,2.7,0,0,1-.22-.74,2.65,2.65,0,0,1-2.06.89,2.89,2.89,0,0,1-2-.7,2.23,2.23,0,0,1-.79-1.76,2.33,2.33,0,0,1,1-2,4.8,4.8,0,0,1,2.8-.7h1v-.47a1.31,1.31,0,0,0-.29-.91,1.13,1.13,0,0,0-.92-.34,1.29,1.29,0,0,0-.87.26.9.9,0,0,0-.31.73H45.73a2.14,2.14,0,0,1,.44-1.32,2.88,2.88,0,0,1,1.24-1,4.55,4.55,0,0,1,1.8-.35,3.61,3.61,0,0,1,2.41.76,2.67,2.67,0,0,1,.89,2.15v3.55a4,4,0,0,0,.33,1.77v.13Z"/><path class="cls-1" d="M58.64,102.38a.71.71,0,0,0-.4-.63,4.61,4.61,0,0,0-1.28-.42c-2-.4-2.92-1.23-2.92-2.48a2.27,2.27,0,0,1,.9-1.83,3.7,3.7,0,0,1,2.37-.73,4,4,0,0,1,2.5.74,2.33,2.33,0,0,1,.93,1.91H58.55a1.09,1.09,0,0,0-.3-.78,1.3,1.3,0,0,0-1-.3,1.27,1.27,0,0,0-.85.25.75.75,0,0,0-.31.63.69.69,0,0,0,.35.59,3.57,3.57,0,0,0,1.16.39,9,9,0,0,1,1.38.36,2.27,2.27,0,0,1,1.74,2.21,2.11,2.11,0,0,1-1,1.81,4.09,4.09,0,0,1-2.48.7,4.24,4.24,0,0,1-1.83-.37,3,3,0,0,1-1.26-1,2.35,2.35,0,0,1-.45-1.38h2.07a1.15,1.15,0,0,0,.44.89,1.68,1.68,0,0,0,1.07.31,1.64,1.64,0,0,0,1-.23.74.74,0,0,0,.33-.63"/><path class="cls-1" d="M64.8,94.43v2h1.4v1.61H64.8v4.09a1,1,0,0,0,.17.66.89.89,0,0,0,.67.19,3.24,3.24,0,0,0,.65,0v1.66a4.61,4.61,0,0,1-1.33.2,2.09,2.09,0,0,1-2.35-2.33V98.05h-1.2V96.44h1.2v-2Z"/><path class="cls-1" d="M71,98.06a1.38,1.38,0,0,0-1.06.44,2.35,2.35,0,0,0-.52,1.27h3v-.18a1.6,1.6,0,0,0-.4-1.13,1.39,1.39,0,0,0-1.07-.4m.25,6.74a4,4,0,0,1-2.94-1.11,3.92,3.92,0,0,1-1.13-3v-.21a5.08,5.08,0,0,1,.47-2.21A3.48,3.48,0,0,1,69,96.82a3.8,3.8,0,0,1,2-.53,3.41,3.41,0,0,1,2.65,1.06,4.31,4.31,0,0,1,1,3v.9H69.35a2,2,0,0,0,.64,1.29,1.92,1.92,0,0,0,1.35.48,2.38,2.38,0,0,0,2-.91l1.08,1.2a3.29,3.29,0,0,1-1.34,1.09,4.36,4.36,0,0,1-1.86.39"/><path class="cls-1" d="M80.42,98.5a6,6,0,0,0-.79-.06,1.61,1.61,0,0,0-1.63.84v5.37H75.81v-8.2h2.07l.06,1a2,2,0,0,1,1.83-1.13,2.48,2.48,0,0,1,.68.1Z"/><path class="cls-1" d="M87.76,98.76h1.83a1.88,1.88,0,0,0,1.33-.43,1.57,1.57,0,0,0,.47-1.2A1.7,1.7,0,0,0,91,95.9a1.84,1.84,0,0,0-1.36-.45H87.76Zm1.81,1.85H87.76v4H85.49v-11h4.1a4.61,4.61,0,0,1,3,.87A3,3,0,0,1,93.66,97a3.08,3.08,0,0,1-2,3.08l2.39,4.51v.11H91.64Z"/><path class="cls-1" d="M97.56,104.65h-2.2V96.44h2.2ZM95.23,94.32a1.07,1.07,0,0,1,.33-.81,1.25,1.25,0,0,1,.9-.32,1.27,1.27,0,0,1,.9.32,1.07,1.07,0,0,1,.33.81,1.05,1.05,0,0,1-.34.82,1.24,1.24,0,0,1-.89.32,1.26,1.26,0,0,1-.89-.32,1.08,1.08,0,0,1-.34-.82"/><path class="cls-1" d="M103.81,102.38a.71.71,0,0,0-.4-.63,4.61,4.61,0,0,0-1.28-.42c-1.95-.4-2.92-1.23-2.92-2.48a2.27,2.27,0,0,1,.9-1.83,3.68,3.68,0,0,1,2.37-.73A4,4,0,0,1,105,97a2.33,2.33,0,0,1,.93,1.91h-2.19a1.09,1.09,0,0,0-.3-.78,1.3,1.3,0,0,0-1-.3,1.27,1.27,0,0,0-.85.25.75.75,0,0,0-.31.63.69.69,0,0,0,.35.59,3.57,3.57,0,0,0,1.16.39,9,9,0,0,1,1.38.36,2.27,2.27,0,0,1,1.74,2.21,2.11,2.11,0,0,1-1,1.81,4.09,4.09,0,0,1-2.48.7,4.24,4.24,0,0,1-1.83-.37,3,3,0,0,1-1.26-1A2.35,2.35,0,0,1,99,102H101a1.15,1.15,0,0,0,.44.89,1.66,1.66,0,0,0,1.07.31,1.64,1.64,0,0,0,1-.23.74.74,0,0,0,.33-.63"/><polygon class="cls-1" points="110.33 101.36 109.54 102.14 109.54 104.65 107.35 104.65 107.35 93 109.54 93 109.54 99.45 109.96 98.91 112.06 96.44 114.69 96.44 111.73 99.86 114.95 104.65 112.43 104.65 110.33 101.36"/><path class="cls-1" d="M121.92,98.76h1.84a1.86,1.86,0,0,0,1.32-.43,1.53,1.53,0,0,0,.47-1.2,1.66,1.66,0,0,0-.44-1.23,1.83,1.83,0,0,0-1.36-.45h-1.83Zm1.81,1.85h-1.81v4h-2.27v-11h4.1a4.66,4.66,0,0,1,3,.87A3,3,0,0,1,127.83,97a3.35,3.35,0,0,1-.49,1.88,3.39,3.39,0,0,1-1.48,1.2l2.38,4.51v.11H125.8Z"/><path class="cls-1" d="M132.94,98.06a1.38,1.38,0,0,0-1.06.44,2.35,2.35,0,0,0-.52,1.27h3v-.18a1.6,1.6,0,0,0-.4-1.13,1.39,1.39,0,0,0-1.07-.4m.25,6.74a4,4,0,0,1-2.94-1.11,3.92,3.92,0,0,1-1.13-3v-.21a5.08,5.08,0,0,1,.47-2.21,3.48,3.48,0,0,1,1.36-1.5,3.8,3.8,0,0,1,2-.53,3.41,3.41,0,0,1,2.65,1.06,4.31,4.31,0,0,1,1,3v.9h-5.22a2,2,0,0,0,.64,1.29,1.92,1.92,0,0,0,1.35.48,2.38,2.38,0,0,0,2-.91l1.08,1.2a3.29,3.29,0,0,1-1.34,1.09,4.36,4.36,0,0,1-1.86.39"/><path class="cls-1" d="M139.65,100.65a3.31,3.31,0,0,0,.4,1.77,1.31,1.31,0,0,0,1.17.61,1.44,1.44,0,0,0,1.43-.86V98.93a1.43,1.43,0,0,0-1.41-.85c-1.06,0-1.59.85-1.59,2.57m-2.19-.16a5,5,0,0,1,.86-3.06,2.8,2.8,0,0,1,2.36-1.14,2.5,2.5,0,0,1,2,.9V93h2.2v11.65h-2l-.1-.87a2.59,2.59,0,0,1-2.11,1,2.78,2.78,0,0,1-2.32-1.14,5.06,5.06,0,0,1-.88-3.17"/><path class="cls-1" d="M151.46,103.81a2.74,2.74,0,0,1-2.24,1,2.57,2.57,0,0,1-2-.76,3.18,3.18,0,0,1-.71-2.22V96.45h2.19v5.3c0,.86.39,1.28,1.16,1.28a1.6,1.6,0,0,0,1.54-.77V96.45h2.19v8.2h-2.06Z"/><path class="cls-1" d="M158.65,103a1.43,1.43,0,0,0,1-.33,1.15,1.15,0,0,0,.4-.89h2.05a2.82,2.82,0,0,1-.45,1.53,3.08,3.08,0,0,1-1.23,1.08,3.9,3.9,0,0,1-1.71.38,3.55,3.55,0,0,1-2.78-1.12,4.39,4.39,0,0,1-1-3.09v-.14a4.4,4.4,0,0,1,1-3,3.55,3.55,0,0,1,2.77-1.13,3.47,3.47,0,0,1,2.47.88,3.09,3.09,0,0,1,.94,2.33H160a1.48,1.48,0,0,0-.4-1,1.29,1.29,0,0,0-1-.4,1.31,1.31,0,0,0-1.15.56,3.22,3.22,0,0,0-.39,1.81v.23a3.27,3.27,0,0,0,.38,1.82,1.34,1.34,0,0,0,1.18.55"/><path class="cls-1" d="M166,94.43v2h1.41v1.61H166v4.09a1,1,0,0,0,.18.66.89.89,0,0,0,.67.19,3.14,3.14,0,0,0,.64,0v1.66a4.56,4.56,0,0,1-1.33.2,2.1,2.1,0,0,1-2.35-2.33V98.05h-1.19V96.44h1.19v-2Z"/><path class="cls-1" d="M170.89,104.65h-2.2V96.44h2.2Zm-2.33-10.33a1.07,1.07,0,0,1,.33-.81,1.25,1.25,0,0,1,.9-.32,1.29,1.29,0,0,1,.9.32,1.07,1.07,0,0,1,.33.81,1.05,1.05,0,0,1-.34.82,1.4,1.4,0,0,1-1.78,0,1.08,1.08,0,0,1-.34-.82"/><path class="cls-1" d="M174.54,100.63a3.06,3.06,0,0,0,.44,1.78,1.45,1.45,0,0,0,1.26.62,1.43,1.43,0,0,0,1.24-.61,3.34,3.34,0,0,0,.45-2,3,3,0,0,0-.45-1.78,1.56,1.56,0,0,0-2.5,0,3.41,3.41,0,0,0-.44,1.94m-2.19-.16a4.88,4.88,0,0,1,.47-2.17,3.48,3.48,0,0,1,1.36-1.48,3.91,3.91,0,0,1,2-.53,3.74,3.74,0,0,1,2.71,1,4.08,4.08,0,0,1,1.17,2.76v.56a4.3,4.3,0,0,1-1.05,3,4.08,4.08,0,0,1-5.66,0,4.34,4.34,0,0,1-1.06-3.09Z"/><path class="cls-1" d="M183.49,96.45l.07.94a2.86,2.86,0,0,1,2.35-1.1,2.37,2.37,0,0,1,1.94.77,3.53,3.53,0,0,1,.66,2.29v5.3h-2.19V99.4a1.43,1.43,0,0,0-.31-1,1.36,1.36,0,0,0-1-.31,1.5,1.5,0,0,0-1.38.78v5.79h-2.19v-8.2Z"/></svg>