<svg id="Layer_1" data-name="Layer 1" xmlns="http://www.w3.org/2000/svg" viewBox="0 0 189.92 61.57"><defs><style>.cls-1{fill:#06afaf;}</style></defs><path class="cls-1" d="M60.85,26.05h-31a.4.4,0,0,0-.4.4v9.77a.39.39,0,0,0,.4.39H49.21a19.34,19.34,0,1,1-3.42-18,.39.39,0,0,0,.31.15H58.51a.4.4,0,0,0,.4-.4.41.41,0,0,0-.08-.24,30.76,30.76,0,1,0,2.74,12.66,34.21,34.21,0,0,0-.32-4.39.4.4,0,0,0-.4-.34"/><path class="cls-1" d="M106,21.5,96.56,37.68,87.72,21.5ZM129.79,1.67H117.87a.39.39,0,0,0-.35.2l-5.47,9.34H82.1L77,1.88a.42.42,0,0,0-.36-.22H64.27a.39.39,0,0,0-.35.2.38.38,0,0,0,0,.4L95.53,61.15a.41.41,0,0,0,.36.21h0a.42.42,0,0,0,.35-.2L130.14,2.28a.38.38,0,0,0,0-.41.42.42,0,0,0-.35-.2"/><path class="cls-1" d="M150.18,12.11h16.75c5.79,0,9.11,2.76,9.11,7.56,0,5.26-2.59,7.4-8.93,7.4H150.18Zm39.71,47.27L179.42,34.82c5.42-3,8.44-8.18,8.44-15.15,0-11.29-7.82-18-20.93-18H138.76a.42.42,0,0,0-.41.41V59.54a.41.41,0,0,0,.41.41h11.09a.41.41,0,0,0,.41-.41V37.59H168l9.25,22.12a.41.41,0,0,0,.38.25h11.91a.38.38,0,0,0,.34-.18.42.42,0,0,0,0-.39"/></svg>